<?xml version="1.0" encoding="UTF-8" standalone="no"?>
<!-- Created with Inkscape (http://www.inkscape.org/) -->

<svg
   width="4.2333336mm"
   height="4.8882327mm"
   viewBox="0 0 4.2333336 4.8882327"
   version="1.1"
   id="svg5"
   inkscape:version="1.2.1 (9c6d41e410, 2022-07-14)"
   sodipodi:docname="favicon_16.svg"
   inkscape:export-filename="favicon.png"
   inkscape:export-xdpi="95.999992"
   inkscape:export-ydpi="95.999992"
   xmlns:inkscape="http://www.inkscape.org/namespaces/inkscape"
   xmlns:sodipodi="http://sodipodi.sourceforge.net/DTD/sodipodi-0.dtd"
   xmlns="http://www.w3.org/2000/svg"
   xmlns:svg="http://www.w3.org/2000/svg">
  <sodipodi:namedview
     id="namedview7"
     pagecolor="#ffffff"
     bordercolor="#000000"
     borderopacity="0.25"
     inkscape:showpageshadow="2"
     inkscape:pageopacity="0.0"
     inkscape:pagecheckerboard="0"
     inkscape:deskcolor="#d1d1d1"
     inkscape:document-units="mm"
     showgrid="false"
     inkscape:zoom="28.56431"
     inkscape:cx="7.8769625"
     inkscape:cy="10.257556"
     inkscape:window-width="1920"
     inkscape:window-height="1017"
     inkscape:window-x="3832"
     inkscape:window-y="354"
     inkscape:window-maximized="1"
     inkscape:current-layer="layer1" />
  <defs
     id="defs2" />
  <g
     inkscape:label="Layer 1"
     inkscape:groupmode="layer"
     id="layer1"
     transform="translate(-66.047969,-52.41769)">
    <path
       sodipodi:type="star"
       style="fill:#fda938;stroke:#2c3e50;stroke-width:3.175;stroke-dasharray:none;stroke-opacity:1;fill-opacity:1"
       id="path286"
       inkscape:flatsided="true"
       sodipodi:sides="6"
       sodipodi:cx="32.901196"
       sodipodi:cy="68.766464"
       sodipodi:r1="41.365528"
       sodipodi:r2="35.823601"
       sodipodi:arg1="0.52359878"
       sodipodi:arg2="1.0471976"
       inkscape:rounded="0"
       inkscape:randomized="0"
       d="M 68.724794,89.449228 32.901195,110.13199 -2.9224027,89.449228 -2.9224026,48.0837 32.901196,27.400936 68.724794,48.0837 Z"
       transform="matrix(0.05657858,0,0,0.05657858,66.303133,50.971097)" />
    <g
       id="g496"
       transform="translate(0,-0.37499897)">
      <g
         aria-label="pathlinkR"
         id="text350"
         style="font-weight:bold;font-size:0.838604px;font-family:Helvetica;-inkscape-font-specification:'Helvetica Bold';stroke-width:0.314476;stroke-opacity:0.8">
        <path
           d="m 66.608428,54.854435 q 0,-0.05159 -0.02375,-0.09131 -0.02334,-0.03972 -0.07616,-0.03972 -0.06347,0 -0.08722,0.06019 -0.01228,0.03194 -0.01228,0.08108 0,0.0778 0.04136,0.109329 0.02457,0.01843 0.05814,0.01843 0.04873,0 0.07412,-0.03767 0.0258,-0.03767 0.0258,-0.100321 z m -0.06634,-0.232991 q 0.07821,0 0.13226,0.05774 0.05446,0.05774 0.05446,0.169522 0,0.117929 -0.05323,0.17976 -0.05282,0.06183 -0.136355,0.06183 -0.05323,0 -0.08845,-0.02662 -0.01924,-0.01474 -0.03767,-0.04299 v 0.232581 h -0.115471 v -0.621992 h 0.111786 v 0.06593 q 0.01884,-0.02907 0.04013,-0.04586 0.0389,-0.02989 0.09254,-0.02989 z"
           id="path508"
           style="fill:#2c3e50;fill-opacity:1" />
        <path
           d="m 67.059259,54.860577 q -0.01105,0.007 -0.02252,0.01147 -0.01105,0.0041 -0.03071,0.0078 l -0.02621,0.0049 q -0.03685,0.0066 -0.05282,0.01597 -0.02702,0.01597 -0.02702,0.04955 0,0.02989 0.01638,0.0434 0.01679,0.0131 0.04054,0.0131 0.03767,0 0.0692,-0.02211 0.03194,-0.02211 0.03317,-0.08067 z m -0.07084,-0.05446 q 0.03235,-0.0041 0.04627,-0.01024 0.02498,-0.01065 0.02498,-0.03317 0,-0.02743 -0.01924,-0.03767 -0.01884,-0.01065 -0.05569,-0.01065 -0.04136,0 -0.05855,0.02047 -0.01228,0.01515 -0.01638,0.04095 h -0.112605 q 0.0037,-0.05855 0.03276,-0.09623 0.04627,-0.05896 0.158876,-0.05896 0.0733,0 0.130213,0.02907 0.05692,0.02907 0.05692,0.109739 v 0.204737 q 0,0.02129 8.19e-4,0.05159 0.0012,0.02293 0.007,0.03112 0.0057,0.0082 0.0172,0.01351 v 0.0172 h -0.126937 q -0.0053,-0.01351 -0.0074,-0.02539 -0.002,-0.01187 -0.0033,-0.02703 -0.02416,0.02621 -0.05569,0.04463 -0.03767,0.0217 -0.08517,0.0217 -0.0606,0 -0.100321,-0.0344 -0.03931,-0.0348 -0.03931,-0.09827 0,-0.0823 0.06347,-0.119157 0.03481,-0.02006 0.102368,-0.02866 z m 0.0061,-0.186721 z"
           id="path510"
           style="fill:#2c3e50;fill-opacity:1" />
        <path
           d="m 67.233696,54.718489 v -0.08312 h 0.06224 v -0.12448 h 0.115472 v 0.12448 h 0.07248 v 0.08312 h -0.07248 v 0.235858 q 0,0.02744 0.007,0.0344 0.007,0.0066 0.04259,0.0066 0.0053,0 0.01106,0 0.0061,-4.09e-4 0.01188,-8.19e-4 v 0.08722 l -0.05528,0.002 q -0.08271,0.0029 -0.113015,-0.02866 -0.01966,-0.02006 -0.01966,-0.06183 v -0.274758 z"
           id="path512"
           style="fill:#2c3e50;fill-opacity:1" />
        <path
           d="m 67.804913,54.619806 q 0.04136,0 0.07493,0.01433 0.03399,0.01433 0.05569,0.04381 0.01843,0.02498 0.02252,0.05159 0.0041,0.02621 0.0041,0.08599 v 0.262064 h -0.119157 v -0.271482 q 0,-0.03603 -0.01228,-0.05815 -0.01597,-0.03112 -0.0606,-0.03112 -0.04627,0 -0.07043,0.03112 -0.02375,0.03071 -0.02375,0.08804 v 0.24159 H 67.559637 V 54.47608 h 0.116291 v 0.213337 q 0.02539,-0.0389 0.05855,-0.05405 0.03358,-0.01556 0.07043,-0.01556 z"
           id="path514"
           style="fill:#2c3e50;fill-opacity:1" />
        <path
           d="m 68.190228,55.077599 h -0.1167 v -0.603566 h 0.1167 z"
           id="path516"
           style="fill:#2c3e50;fill-opacity:1" />
        <path
           d="M 68.424038,54.57804 H 68.3057 v -0.107692 h 0.118338 z m -0.118338,0.05323 h 0.118338 v 0.446328 H 68.3057 Z"
           id="path518"
           style="fill:#2c3e50;fill-opacity:1" />
        <path
           d="m 68.784376,54.620625 q 0.0692,0 0.113015,0.03644 0.04422,0.03603 0.04422,0.119976 v 0.300555 h -0.119567 v -0.271482 q 0,-0.03522 -0.0094,-0.05405 -0.0172,-0.0344 -0.06552,-0.0344 -0.05937,0 -0.08149,0.05037 -0.01147,0.02662 -0.01147,0.06797 v 0.24159 H 68.537872 V 54.63209 h 0.112606 v 0.06511 q 0.02252,-0.0344 0.04258,-0.04955 0.03603,-0.02703 0.09131,-0.02703 z m -0.04299,-0.0012 z"
           id="path520"
           style="fill:#2c3e50;fill-opacity:1" />
        <path
           d="m 69.048078,54.47608 h 0.114652 v 0.325123 l 0.145364,-0.167884 h 0.144544 l -0.156009,0.170751 0.162152,0.273529 h -0.14086 l -0.106873,-0.190816 -0.04832,0.05037 v 0.14045 h -0.114652 z"
           id="path522"
           style="fill:#2c3e50;fill-opacity:1" />
        <path
           d="m 69.651234,54.578859 v 0.162151 h 0.142906 q 0.04259,0 0.06388,-0.0098 0.03767,-0.0172 0.03767,-0.06797 0,-0.05487 -0.03644,-0.0737 -0.02047,-0.01065 -0.06142,-0.01065 z m 0.172798,-0.104826 q 0.06347,0.0012 0.09745,0.01556 0.0344,0.01433 0.05814,0.04218 0.01966,0.02293 0.03112,0.05078 0.01147,0.02784 0.01147,0.06347 0,0.04299 -0.0217,0.08476 -0.0217,0.04136 -0.07166,0.05855 0.04177,0.01679 0.05897,0.04791 0.01761,0.03071 0.01761,0.09418 v 0.04054 q 0,0.04136 0.0033,0.0561 0.0049,0.02334 0.02293,0.0344 v 0.01515 h -0.138812 q -0.0057,-0.02007 -0.0082,-0.03235 -0.0049,-0.02539 -0.0053,-0.052 l -8.19e-4,-0.0561 q -8.19e-4,-0.05774 -0.02129,-0.07698 -0.02006,-0.01925 -0.07575,-0.01925 h -0.130213 v 0.236677 h -0.123252 v -0.603566 z"
           id="path524"
           style="fill:#2c3e50;fill-opacity:1" />
      </g>
      <text
         xml:space="preserve"
         style="font-style:normal;font-variant:normal;font-weight:bold;font-stretch:normal;font-size:0.750733px;font-family:'Font Awesome 5 Free';-inkscape-font-specification:'Font Awesome 5 Free Bold';fill:#2c3e50;stroke-width:0.281524;fill-opacity:1"
         x="67.790001"
         y="55.909054"
         id="text440"><tspan
           sodipodi:role="line"
           id="tspan438"
           style="font-style:normal;font-variant:normal;font-weight:bold;font-stretch:normal;font-family:'Font Awesome 5 Free';-inkscape-font-specification:'Font Awesome 5 Free Bold';stroke-width:0.281524;fill:#2c3e50;fill-opacity:1"
           x="67.790001"
           y="55.909054">link</tspan></text>
    </g>
  </g>
</svg>
