<?xml version="1.0" encoding="UTF-8" standalone="no"?>
<!-- Created with Inkscape (http://www.inkscape.org/) -->

<svg
   width="4.2333336mm"
   height="4.8882327mm"
   viewBox="0 0 4.2333336 4.8882327"
   version="1.1"
   id="svg5"
   inkscape:version="1.2.1 (9c6d41e410, 2022-07-14)"
   sodipodi:docname="favicon_16.svg"
   inkscape:export-filename="favicon.png"
   inkscape:export-xdpi="25"
   inkscape:export-ydpi="25"
   xmlns:inkscape="http://www.inkscape.org/namespaces/inkscape"
   xmlns:sodipodi="http://sodipodi.sourceforge.net/DTD/sodipodi-0.dtd"
   xmlns="http://www.w3.org/2000/svg"
   xmlns:svg="http://www.w3.org/2000/svg">
  <sodipodi:namedview
     id="namedview7"
     pagecolor="#ffffff"
     bordercolor="#000000"
     borderopacity="0.25"
     inkscape:showpageshadow="2"
     inkscape:pageopacity="0.0"
     inkscape:pagecheckerboard="0"
     inkscape:deskcolor="#d1d1d1"
     inkscape:document-units="mm"
     showgrid="false"
     inkscape:zoom="28.564309"
     inkscape:cx="-0.98024425"
     inkscape:cy="9.6273989"
     inkscape:window-width="1920"
     inkscape:window-height="1017"
     inkscape:window-x="3832"
     inkscape:window-y="354"
     inkscape:window-maximized="1"
     inkscape:current-layer="layer1" />
  <defs
     id="defs2" />
  <g
     inkscape:label="Layer 1"
     inkscape:groupmode="layer"
     id="layer1"
     transform="translate(-66.03501,-52.540898)">
    <path
       sodipodi:type="star"
       style="fill:#00bfc4;stroke:#000000;stroke-width:3.175;stroke-dasharray:none;stroke-opacity:1"
       id="path286"
       inkscape:flatsided="true"
       sodipodi:sides="6"
       sodipodi:cx="32.901196"
       sodipodi:cy="68.766464"
       sodipodi:r1="41.365528"
       sodipodi:r2="35.823601"
       sodipodi:arg1="0.52359878"
       sodipodi:arg2="1.0471976"
       inkscape:rounded="0"
       inkscape:randomized="0"
       d="M 68.724794,89.449228 32.901195,110.13199 -2.9224027,89.449228 -2.9224026,48.0837 32.901196,27.400936 68.724794,48.0837 Z"
       transform="matrix(0.05657858,0,0,0.05657858,66.290174,51.094305)" />
    <g
       aria-label="pathnet"
       id="text1004"
       style="font-weight:bold;font-size:10.5833px;font-family:'Liberation Sans';-inkscape-font-specification:'Liberation Sans Bold';stroke-width:3.175;stroke-opacity:0.8"
       transform="matrix(0.09988341,0,0,0.09988341,59.020489,46.086244)">
      <path
         d="m 78.057567,88.768289 q 0,1.400427 -0.563271,2.165236 -0.558104,0.759641 -1.581294,0.759641 -0.589109,0 -1.028357,-0.253214 -0.434081,-0.258381 -0.666624,-0.738971 h -0.03101 q 0.03101,0.155029 0.03101,0.940509 v 2.144565 H 72.765918 V 87.28518 q 0,-0.790647 -0.04134,-1.286739 h 1.410762 q 0.02584,0.09302 0.04134,0.366902 0.02067,0.273884 0.02067,0.5426 h 0.02067 q 0.490924,-1.028357 1.787999,-1.028357 0.976681,0 1.514114,0.754473 0.537433,0.749306 0.537434,2.13423 z m -1.514114,0 q 0,-1.881016 -1.152381,-1.881016 -0.578774,0 -0.888832,0.506427 -0.30489,0.506428 -0.30489,1.41593 0,0.904335 0.30489,1.400427 0.310058,0.490924 0.878497,0.490924 1.162716,0 1.162716,-1.932692 z"
         id="path1210" />
      <path
         d="m 80.522526,91.693166 q -0.811318,0 -1.266069,-0.439249 -0.454751,-0.444415 -0.454751,-1.245398 0,-0.868161 0.563271,-1.322912 0.568439,-0.454751 1.643305,-0.465086 l 1.204057,-0.02067 v -0.284219 q 0,-0.547769 -0.191202,-0.811318 -0.191202,-0.268716 -0.625283,-0.268716 -0.403074,0 -0.594277,0.186034 -0.186034,0.180867 -0.232543,0.604612 l -1.514114,-0.07235 q 0.139525,-0.816485 0.744138,-1.235063 0.60978,-0.423745 1.658808,-0.423745 1.059363,0 1.63297,0.52193 0.573607,0.52193 0.573607,1.483109 v 2.036045 q 0,0.470254 0.103352,0.651121 0.10852,0.175699 0.356566,0.175699 0.165364,0 0.320393,-0.03101 v 0.785479 q -0.12919,0.03101 -0.232543,0.05684 -0.103352,0.02584 -0.206705,0.04134 -0.103353,0.0155 -0.222208,0.02584 -0.113688,0.01033 -0.268717,0.01033 -0.547768,0 -0.811317,-0.268717 -0.258381,-0.268716 -0.310058,-0.790647 h -0.03101 q -0.60978,1.100705 -1.839675,1.100705 z m 1.689813,-2.692334 -0.744138,0.01033 q -0.506427,0.02067 -0.7183,0.113688 -0.211873,0.08785 -0.32556,0.273884 -0.108521,0.186035 -0.108521,0.496093 0,0.397907 0.180867,0.594277 0.186035,0.191202 0.490925,0.191202 0.341063,0 0.620115,-0.186035 0.28422,-0.186034 0.444416,-0.511595 0.160196,-0.330728 0.160196,-0.697629 z"
         id="path1212" />
      <path
         d="m 86.547978,91.682831 q -0.640786,0 -0.987017,-0.346231 Q 85.21473,90.985201 85.21473,90.277236 V 86.98029 h -0.707964 v -0.981849 h 0.780311 l 0.454751,-1.312577 h 0.909503 v 1.312577 h 1.059363 v 0.981849 h -1.059363 v 2.904206 q 0,0.408243 0.155029,0.604613 0.155028,0.191202 0.480589,0.191202 0.170531,0 0.485757,-0.07235 v 0.899167 q -0.537433,0.1757 -1.224728,0.1757 z"
         id="path1214" />
      <path
         d="m 90.0723,87.114648 q 0.294554,-0.640785 0.73897,-0.930172 0.444416,-0.289387 1.059364,-0.289387 0.888832,0 1.364253,0.547768 0.475422,0.547768 0.475422,1.601964 v 3.544992 h -1.446936 v -3.131582 q 0,-1.472773 -0.997351,-1.472773 -0.527098,0 -0.852659,0.454751 -0.320393,0.449583 -0.320393,1.157548 v 2.992056 h -1.452103 v -7.668758 h 1.452103 v 2.092889 q 0,0.563271 -0.04134,1.100704 z"
         id="path1216" />
      <path
         d="m 98.728075,91.589813 v -3.136749 q 0,-1.472774 -0.997352,-1.472774 -0.527098,0 -0.852658,0.454751 -0.320393,0.449584 -0.320393,1.157549 v 2.997223 h -1.452103 v -4.340806 q 0,-0.449584 -0.0155,-0.733803 -0.01033,-0.289387 -0.02584,-0.516763 h 1.384924 q 0.0155,0.09819 0.04134,0.527098 0.02584,0.423745 0.02584,0.583942 h 0.02067 q 0.294555,-0.640786 0.738971,-0.930173 0.444416,-0.289387 1.059363,-0.289387 0.888832,0 1.364254,0.547768 0.475419,0.547769 0.475419,1.601965 v 3.550159 z"
         id="path1218" />
      <path
         d="m 103.85953,91.693166 q -1.2609,0 -1.93786,-0.744138 -0.67696,-0.749306 -0.67696,-2.180739 0,-1.384924 0.68729,-2.129062 0.6873,-0.744138 1.9482,-0.744138 1.20406,0 1.83967,0.800982 0.63562,0.795814 0.63562,2.335767 v 0.04134 h -3.58633 q 0,0.816485 0.29972,1.235063 0.30489,0.41341 0.86299,0.41341 0.76998,0 0.97152,-0.666624 l 1.36942,0.118855 q -0.59428,1.519283 -2.41328,1.519283 z m 0,-4.883408 q -0.5116,0 -0.79065,0.356567 -0.27388,0.356566 -0.28939,0.997352 h 2.17041 q -0.0413,-0.676959 -0.32556,-1.012855 -0.28422,-0.341064 -0.76481,-0.341064 z"
         id="path1220" />
      <path
         d="m 108.88763,91.682831 q -0.64079,0 -0.98702,-0.346231 -0.34623,-0.351399 -0.34623,-1.059364 V 86.98029 h -0.70797 v -0.981849 h 0.78032 l 0.45475,-1.312577 h 0.9095 v 1.312577 h 1.05936 v 0.981849 h -1.05936 v 2.904206 q 0,0.408243 0.15503,0.604613 0.15503,0.191202 0.48059,0.191202 0.17053,0 0.48575,-0.07235 v 0.899167 q -0.53743,0.1757 -1.22472,0.1757 z"
         id="path1222" />
    </g>
  </g>
</svg>
